<?xml version="1.0" encoding="utf-8" ?>
<svg xmlns="http://www.w3.org/2000/svg" xmlns:xlink="http://www.w3.org/1999/xlink" width="500" height="500">
	<defs>
		<linearGradient id="gradient_0" gradientUnits="userSpaceOnUse" x1="300.59164" y1="279.17889" x2="307.13788" y2="280.97766">
			<stop offset="0" stop-color="#FF9220"/>
			<stop offset="1" stop-color="#FEAC29"/>
		</linearGradient>
	</defs>
	<path fill="url(#gradient_0)" d="M306.742 266.4C307.122 266.605 307.47 266.735 307.875 266.877L308.656 265.972C310.901 270.899 309.178 277.037 307.381 281.885C305.492 286.978 302.419 291.422 297.332 293.719L295.477 294.428C295.388 293.706 295.593 293.138 295.78 292.454C297.114 291.94 298.51 291.072 299.632 290.187C305.364 285.664 306.988 277.982 307.867 271.101C308.096 269.309 307.718 267.92 306.742 266.4Z"/>
	<path fill="#FEA327" d="M308.951 224.78C310.722 223.944 312.857 224.151 314.663 224.794C316.359 225.398 318.193 226.715 318.969 228.375C320.929 232.564 315.761 244.331 314.197 248.739L311.47 257L309.481 262.625C309.098 263.673 308.518 264.843 308.656 265.972L307.875 266.877C307.47 266.735 307.122 266.605 306.742 266.4C306.61 266.182 306.406 265.994 306.346 265.747C306.221 265.234 307.127 263.093 307.333 262.465L313.615 244.191C314.705 241.157 316.12 238.099 316.958 234.994C317.402 233.35 318.039 230.981 317.613 229.316C317.364 228.347 315.62 227.171 314.762 226.76C312.564 225.705 311.251 225.926 309.072 226.704C309.406 226.124 309.641 225.819 309.582 225.125L308.951 224.78Z"/>
	<path fill="#FB852C" d="M272.028 299.522L287.77 299.462L287.996 338.54L207.802 338.32L192.818 338.567L192.784 319.258L248.846 319.325L263.724 319.301C266.243 319.295 269.083 319.018 271.547 319.437L271.75 319.475L272.171 319.125C271.898 316.804 272.048 314.358 272.045 312.019L272.028 299.522Z"/>
	<path fill="#FB852C" d="M259.132 124.356C264.44 124.149 269.643 124.611 274.712 126.267C280.256 128.079 284.133 130.762 286.798 136.112C289.732 142.002 289.3 151.303 287.134 157.438C285.249 162.775 281.513 165.948 276.504 168.289L271.204 170.48L287.792 170.308L288.007 210.036L192.796 209.879L192.823 171.499L210.997 171.664L210.904 190.488L229.957 190.259C229.703 186.964 229.803 183.62 229.79 180.315C229.779 177.679 229.613 174.948 229.866 172.324C232.268 172.651 234.903 172.446 237.334 172.39L247.602 172.256L247.63 189.998L247.601 190.372L252.808 190.276L265.756 190.27C266.57 190.27 269.129 190.501 269.688 190.089L269.555 170.505L253.053 170.906L252.715 170.947C252.264 169.414 252.552 166.969 252.547 165.343L252.517 152.243L261.19 152.267C263.467 152.268 266.027 152.43 268.205 151.649C270.095 150.97 271.184 149.165 271.942 147.432C271.509 146.428 271.007 145.006 270.119 144.317C268.635 143.166 266.038 143.196 264.25 143.199C253.976 143.215 248.181 150.755 241.525 157.464C235.719 163.317 228.647 169.317 220.216 170.541C213.483 171.518 204.787 170.173 199.271 165.973C194.748 162.529 193.04 157.878 192.275 152.42C191.371 145.975 192.319 138.397 196.385 133.103C202.074 125.694 211.548 125.773 219.972 124.709L220.005 144.22L218.96 144.125L217.659 144.021C215.384 143.926 212.331 143.761 210.578 145.521C209.834 146.267 209.316 147.286 209.355 148.353C209.392 149.368 209.719 150.528 210.524 151.205C212.115 152.543 213.989 153.051 216 152.47C217.432 152.056 218.911 150.992 220.125 150.148C225.906 146.131 230.27 140.186 235.196 135.218C237.594 132.799 240.251 130.557 243.177 128.806C248.021 125.909 253.574 124.838 259.132 124.356Z"/>
	<path fill="#FB852C" d="M275.562 293.344C272.717 292.279 270.06 291.245 267.015 290.869C261.913 290.24 256.297 290.678 251.143 290.68L222.212 290.725L211.018 290.921C210.611 294.602 210.984 298.686 211.005 302.41C209.975 302.923 195.489 302.55 192.817 302.582L192.557 260.997L210.848 261.004C211.228 264.344 211.115 268.364 210.881 271.723L210.858 272.023C211.958 272.266 213.295 272.066 214.431 272.055L221.036 272.039L248.588 272.018C253.084 272.018 258.145 271.588 262.569 272.24L262.907 272.292L265.215 259.955L192.6 260.048L192.642 240.202L218.417 235.376C224.443 234.271 231.074 233.699 236.738 231.311L192.803 231.866L192.78 213.249L287.931 213.238C287.968 219.437 288.499 226.09 287.579 232.216L260.083 237.508L246.56 240.251C245.099 240.62 243.601 240.781 242.3 241.591C242.409 241.668 242.501 241.774 242.625 241.824C243.123 242.024 245.582 241.62 246.343 241.62L285.19 241.775C285.827 241.894 286.224 241.94 286.875 241.816C287.667 239.573 287.661 236.38 287.963 233.955L289.03 227.369C289.018 225.964 289.323 224.562 289.74 223.23C290.318 222.046 291.051 221.309 292.168 220.62C293.515 219.441 295.341 218.852 297.141 219.024C299.099 219.211 301.055 220.187 302.288 221.743C302.953 222.583 303.352 223.328 303.527 224.375L303.593 224.735C303.854 226.256 303.717 227.7 303.493 229.213L303.277 231.442C304.306 230.774 304.588 229.467 305.001 228.337C306.04 226.626 307.161 225.635 308.951 224.78L309.582 225.125C309.641 225.819 309.406 226.124 309.072 226.704C311.251 225.926 312.564 225.705 314.762 226.76C315.62 227.171 317.364 228.347 317.613 229.316C318.039 230.981 317.402 233.35 316.958 234.994C316.12 238.099 314.705 241.157 313.615 244.191L307.333 262.465C307.127 263.093 306.221 265.234 306.346 265.747C306.406 265.994 306.61 266.182 306.742 266.4C307.718 267.92 308.096 269.309 307.867 271.101C306.988 277.982 305.364 285.664 299.632 290.187C298.51 291.072 297.114 291.94 295.78 292.454C295.593 293.138 295.388 293.706 295.477 294.428C295.147 294.589 295.244 294.554 294.936 294.661C288.159 297 281.99 296.397 275.562 293.344Z"/>
	<path d="M297.291 220.714C299.453 221.129 299.982 221.737 301.371 223.304L301.885 226.815L301.276 233.916L299.301 247.764C299.204 248.406 298.593 250.885 298.752 251.375C298.797 251.514 298.917 251.617 299 251.738C299.613 251.501 299.603 251.447 299.878 250.82C300.743 248.849 301.114 246.561 301.764 244.5C303.284 239.678 305.012 234.744 306.165 229.825C306.902 228.338 307.665 227.59 309.072 226.704C311.251 225.926 312.564 225.705 314.762 226.76C315.62 227.171 317.364 228.347 317.613 229.316C318.039 230.981 317.402 233.35 316.958 234.994C316.12 238.099 314.705 241.157 313.615 244.191L307.333 262.465C307.127 263.093 306.221 265.234 306.346 265.747C306.406 265.994 306.61 266.182 306.742 266.4C307.718 267.92 308.096 269.309 307.867 271.101C306.988 277.982 305.364 285.664 299.632 290.187C298.51 291.072 297.114 291.94 295.78 292.454C292.832 293.584 288.75 294.586 285.597 294.434C282.259 294.272 278.857 293.095 275.792 291.845C271.322 289.225 267.88 285.684 265.989 280.8C265.233 278.847 264.775 276.458 264.782 274.375C264.789 272.567 265.181 270.778 265.458 269L268.109 255.694C268.443 253.864 268.243 251.6 269.056 249.913C270.094 247.761 271.823 247.023 273.947 246.318C275.371 246.672 276.534 247.232 277.829 247.902L278.109 247.303C278.881 245.716 279.831 244.052 281.61 243.473L281.875 243.392C282.825 243.088 283.515 243.081 284.509 243.169C286.051 243.467 287.308 244.22 288.692 244.922C288.729 240.996 289.618 236.792 290.219 232.914L290.954 226.139L291.09 225.698C291.366 224.631 291.699 223.299 292.455 222.461C293.718 221.061 295.531 220.834 297.291 220.714Z"/>
	<path fill="#FB852C" d="M281.766 244.282C283.368 244.164 285.109 244.208 286.447 245.225C288.507 246.792 288.567 251.011 288.917 253.375L288.625 253.755L287.165 252.707L286.973 252.553C285.191 251.155 283.114 250.222 280.811 250.57L280.328 250.652L279.473 249.75C279.043 249.075 279.385 247.669 279.542 246.919C279.828 245.55 280.639 245.004 281.766 244.282Z"/>
	<path fill="#FB852C" d="M273.581 247.757C274.982 247.664 276.054 248.119 277.154 248.969C277.617 249.328 278.933 250.536 279.081 251.081C279.096 251.138 276.852 254.763 276.677 255.247C276.416 255.968 276.404 256.913 276.523 257.668C276.861 259.809 278.765 261.201 280.348 262.449C279.973 263.085 279.075 263.62 278.491 264.08C277.178 264.681 275.204 265.413 273.781 264.845C272.852 264.474 271.84 262.911 271.461 262.037C270.759 260.418 270.645 258.276 270.382 256.527C270.059 254.376 269.28 252.336 270.176 250.184C270.835 248.603 272.114 248.312 273.581 247.757Z"/>
	<path fill="#FB852C" d="M296.528 221.543C297.884 221.623 298.792 221.957 299.724 222.991C300.317 223.647 300.851 224.606 300.984 225.485C301.16 226.658 300.92 228.08 300.805 229.262L299.867 236.394C299.082 241.522 298.098 246.987 297.801 252.152C297.751 253.032 297.758 254.012 298.375 254.702C298.633 254.676 298.91 254.723 299.15 254.625C300.535 254.06 304.55 239.183 305.172 236.981C306.005 234.028 306.677 229.081 309.622 227.517C310.688 226.951 312.088 226.731 313.255 227.139C314.367 227.527 315.722 228.436 316.19 229.55C317.218 231.993 315.117 236.943 314.251 239.314L305.35 265.336C304.01 264.694 302.78 263.681 301.571 262.821L295.128 258.392C293.547 257.389 290.457 255.693 290.042 253.736C289.575 251.529 289.252 249.111 289.281 246.853C289.328 243.247 290.343 239.389 290.808 235.797C291.246 232.407 291.343 228.872 292.041 225.537C292.215 224.706 292.462 223.988 292.952 223.286C293.762 222.125 295.214 221.746 296.528 221.543Z"/>
	<path fill="#FB852C" d="M281.514 251.736C281.804 251.694 282.1 251.674 282.392 251.695C286.134 251.967 290.643 256.321 293.672 258.463C298.055 261.562 303.016 264.293 306.561 268.374C306.813 270.342 306.557 273.081 306.158 275.029L305.139 279.446C303.677 284.263 300.982 288.454 296.446 290.872C295.303 291.481 294.023 292.194 292.791 292.566C289.383 293.593 284.104 293.475 280.749 292.398C274.339 290.342 269.939 286.682 266.9 280.708C266.209 279.128 266.059 277.325 265.918 275.625C265.537 271.004 266.947 266.011 267.95 261.519C268.399 259.507 268.652 257.536 269.206 255.535C269.56 257.729 269.409 259.845 270.3 261.941L270.487 262.375L270.984 263.429C271.743 264.699 273.38 266.139 274.875 266.404C277.937 266.947 279.148 264.557 281.395 263.079C286.049 266.471 290.501 270.384 295.652 273.005C294.143 270.848 291.948 269.414 289.839 267.907L281.499 261.851C280.224 260.843 278.688 259.757 277.849 258.34C277.395 257.573 277.372 256.336 277.641 255.491C278.248 253.587 279.884 252.647 281.514 251.736Z"/>
</svg>
